# xmcd
#
# Track frame offsets: 
#        150
#        15451
#        31537
#        46767
#        63236
#        78500
#        94298
#        110280
#        126540
#        141811
#        156146
#        172089
#        185297
#        200192
#
# Disc length: 2868 seconds
#
# Revision: 1
# Processed by: cddbd v1.5.2PL0 Copyright (c) Steve Scherf et al.
# Submitted via: ExactAudioCopy v1.1
#
DISCID=b80b320e
DTITLE=Fifth Harmony - 7_27 [Bonus Tracks]
DYEAR=2016
DGENRE=Pop
TTITLE0=That's My Girl
TTITLE1=Work From Home Feat. Ty Dolla $ign
TTITLE2=The Life
TTITLE3=Write On Me
TTITLE4=I Lied
TTITLE5=All In My Head (Flex) Feat. Fetty Wap
TTITLE6=Squeeze
TTITLE7=Gonna Get Better
TTITLE8=Scared Of Happy
TTITLE9=Not That Kinda Girl Feat. Missy Elliott
TTITLE10=Dope
TTITLE11=No Way
TTITLE12=Big Bad Wolf
TTITLE13=1000 Hands
EXTD=
EXTT0=
EXTT1=
EXTT2=
EXTT3=
EXTT4=
EXTT5=
EXTT6=
EXTT7=
EXTT8=
EXTT9=
EXTT10=
EXTT11=
EXTT12=
EXTT13=
PLAYORDER=
